<?xml version="1.0" encoding="utf-8"?>
<!-- Generator: Adobe Illustrator 19.2.0, SVG Export Plug-In . SVG Version: 6.00 Build 0)  -->
<svg version="1.1" id="Layer_1" xmlns="http://www.w3.org/2000/svg" xmlns:xlink="http://www.w3.org/1999/xlink" x="0px" y="0px"
	 viewBox="0 0 512 512" style="enable-background:new 0 0 512 512;" xml:space="preserve">
<style type="text/css">
	.st0{fill:#FF5500;}
</style>
<g transform="translate(0.000000,512.000000) scale(0.100000,-0.100000)">
	<path class="st0" d="M823,3638L10,2825l820-820l820-820v347c0,211,4,349,10,353c13,8,396-12,600-30c681-64,1304-225,1820-472
		c347-166,638-363,919-622c62-57,111-96,108-85c-4,10-18,60-32,109c-139,489-328,867-639,1280c-123,164-524,565-701,702
		c-580,448-1248,774-2010,981l-70,19l-7,323c-4,178-8,332-10,342C1636,4445,1400,4215,823,3638z"/>
</g>
</svg>
