<?xml version="1.0" encoding="utf-8"?>
<!-- Generator: Adobe Illustrator 19.2.0, SVG Export Plug-In . SVG Version: 6.00 Build 0)  -->
<svg version="1.1" id="Layer_1" xmlns="http://www.w3.org/2000/svg" xmlns:xlink="http://www.w3.org/1999/xlink" x="0px" y="0px"
	 viewBox="0 0 512 512" style="enable-background:new 0 0 512 512;" xml:space="preserve">
<style type="text/css">
	.st0{fill:#00D01F;}
</style>
<g transform="translate(0.000000,512.000000) scale(0.100000,-0.100000)">
	<path class="st0" d="M4245,5091c-214-61-478-313-845-806c-358-480-741-1080-1607-2519c-175-291-323-529-328-530c-5,0-15,15-22,34
		s-42,116-79,215c-83,227-195,540-272,762c-32,95-67,184-76,198c-28,43-59,49-221,49c-171-1-284-20-350-58c-49-29-70-58-87-119
		c-15-58-3-104,110-417C759,1090,900,632,934,387c14-107,29-132,132-226c114-104,206-151,297-151c71,0,135,38,224,134
		c124,133,209,267,506,801c507,913,838,1457,1229,2017c129,186,427,582,558,743c158,193,427,461,570,567c222,165,330,303,330,423
		c0,161-80,319-190,375C4507,5112,4351,5122,4245,5091z"/>
</g>
</svg>
