<svg id="Layer_1" xmlns="http://www.w3.org/2000/svg" viewBox="0 0 512 512"><style>.st0{fill:#00d01f}</style><path class="st0" d="M4245 5091c-214-61-478-313-845-806-358-480-741-1080-1607-2519-175-291-323-529-328-530-5 0-15 15-22 34s-42 116-79 215c-83 227-195 540-272 762-32 95-67 184-76 198-28 43-59 49-221 49-171-1-284-20-350-58-49-29-70-58-87-119-15-58-3-104 110-417C759 1090 900 632 934 387c14-107 29-132 132-226 114-104 206-151 297-151 71 0 135 38 224 134 124 133 209 267 506 801 507 913 838 1457 1229 2017 129 186 427 582 558 743 158 193 427 461 570 567 222 165 330 303 330 423 0 161-80 319-190 375-83 42-239 52-345 21z" transform="matrix(.1 0 0 -.1 0 512)"/></svg>