<svg xmlns="http://www.w3.org/2000/svg" version="1" width="682.667" height="682.667" viewBox="0 0 512.000000 512.000000"><g fill="#fff"><path d="M245.3 2.8c-6.3 2.3-11.5 6.1-15.4 11.5-6.2 8.5-5.9 2.3-5.9 137.1v123l-39.2-39c-44.1-43.9-42.8-42.9-56.8-42.8-17.7.1-31 13.4-31 31 0 14.5-4.5 9.1 71.4 85.2 38.5 38.7 70.1 69.5 72.6 71 4.1 2.5 5.4 2.7 15 2.7s10.9-.2 15-2.7c2.5-1.5 34.1-32.3 72.6-71 75.9-76.1 71.4-70.7 71.4-85.2 0-17.6-13.3-30.9-31-31-14-.1-12.7-1.1-56.7 42.7L288 274.4l-.2-124.9-.3-125-2.8-5.7c-3.2-6.5-9-12.2-15.6-15.1-6.5-2.9-17.1-3.3-23.8-.9z"/><path d="M20 322.5c-6.8 3.3-12.4 8.5-15.8 15l-2.7 5v145l2.8 5.7c3.2 6.5 8.9 12.1 15.6 15.2l4.6 2.1h463l4.6-2.1c6.7-3.1 12.4-8.7 15.6-15.2l2.8-5.7v-145l-2.7-5c-3.5-6.7-9-11.8-16.2-15.1-5.2-2.3-6.7-2.6-14-2.2-12.7.7-21.9 6.7-27.3 17.6l-2.8 5.7-.3 51.7-.3 51.8H65.1l-.3-51.8-.3-51.7-2.8-5.7c-3.1-6.2-8.4-11.6-14.9-14.9-3.2-1.7-6.5-2.4-12.8-2.6-7.5-.4-9.1-.1-14 2.2z"/></g></svg>