<svg id="Layer_1" xmlns="http://www.w3.org/2000/svg" viewBox="0 0 512 512"><style>.st0{fill:#fff}</style><path class="st0" d="M2267 5080c-43-37-73-98-362-725-114-247-293-634-397-860-105-225-277-599-383-830s-265-577-355-770C420 1140 62 353 51 315 16 186 71 72 191 26c40-15 126-16 954-14l910 3 66 32c80 40 155 116 198 202l32 61-3 2380-3 2379-21 22-21 21-36-32zm-317-3155V410h-669c-637 0-731 3-731 20 0 8 348 764 975 2120 166 360 327 708 356 772 30 65 57 118 62 118 4 0 7-682 7-1515zm854 3164c-19-21-19-77-22-2400l-2-2379 27-58c31-66 138-179 195-205 20-10 61-22 91-27 34-7 383-9 943-8l889 3 41 22c87 46 132 131 121 226-6 49-179 436-807 1802-517 1125-1264 2743-1320 2857-47 97-110 188-129 188-4 0-16-9-27-21z" transform="matrix(.1 0 0 -.1 0 512)"/></svg>