<svg id="Layer_1" xmlns="http://www.w3.org/2000/svg" viewBox="0 0 512 512"><style>.st0{fill:#fff}</style><path class="st0" d="M4820 5074c-140-56-4227-1933-4641-2132-156-75-202-123-146-154 38-21 778-27 2837-21l1945 6 60 31c75 39 155 117 189 184 44 86 47 180 44 1083-3 813-3 825-24 869-24 50-64 94-108 117-31 16-131 27-156 17zM64 2329c-72-21-63-65 22-115 88-52 1994-931 4009-1851 319-145 611-279 650-296 57-26 82-32 141-32 62 0 76 4 114 30 68 47 89 88 100 191 13 119 12 1603 0 1722-12 113-41 175-114 247-29 27-81 65-115 83l-64 32-2356-1c-1375 0-2369-5-2387-10zm4636-1089c0-385-4-700-9-700-4 0-46 18-92 39-46 22-394 182-774 356-1165 536-2098 966-2135 986-34 18 0 18 1488 19h1522v-700z" transform="matrix(.1 0 0 -.1 0 512)"/></svg>