<?xml version="1.0" encoding="utf-8"?>
<!-- Generator: Adobe Illustrator 19.2.0, SVG Export Plug-In . SVG Version: 6.00 Build 0)  -->
<svg version="1.1" id="Layer_1" xmlns="http://www.w3.org/2000/svg" xmlns:xlink="http://www.w3.org/1999/xlink" x="0px" y="0px"
	 viewBox="0 0 512 512" style="enable-background:new 0 0 512 512;" xml:space="preserve">
<style type="text/css">
	.st0{fill:#FFFFFF;}
</style>
<g transform="translate(0.000000,512.000000) scale(0.100000,-0.100000)">
	<path class="st0" d="M4820,5074c-140-56-4227-1933-4641-2132c-156-75-202-123-146-154c38-21,778-27,2837-21l1945,6l60,31
		c75,39,155,117,189,184c44,86,47,180,44,1083c-3,813-3,825-24,869c-24,50-64,94-108,117C4945,5073,4845,5084,4820,5074z"/>
	<path class="st0" d="M64,2329c-72-21-63-65,22-115c88-52,1994-931,4009-1851c319-145,611-279,650-296c57-26,82-32,141-32
		c62,0,76,4,114,30c68,47,89,88,100,191c13,119,12,1603,0,1722c-12,113-41,175-114,247c-29,27-81,65-115,83l-64,32l-2356-1
		C1076,2339,82,2334,64,2329z M4700,1240c0-385-4-700-9-700c-4,0-46,18-92,39c-46,22-394,182-774,356c-1165,536-2098,966-2135,986
		c-34,18,0,18,1488,19h1522V1240z"/>
</g>
</svg>
