<?xml version="1.0" encoding="utf-8"?>
<!-- Generator: Adobe Illustrator 19.2.0, SVG Export Plug-In . SVG Version: 6.00 Build 0)  -->
<svg version="1.1" id="Layer_1" xmlns="http://www.w3.org/2000/svg" xmlns:xlink="http://www.w3.org/1999/xlink" x="0px" y="0px"
	 viewBox="0 0 512 512" style="enable-background:new 0 0 512 512;" xml:space="preserve">
<style type="text/css">
	.st0{fill:#FFFFFF;}
</style>
<g transform="translate(0.000000,512.000000) scale(0.100000,-0.100000)">
	<path class="st0" d="M2267,5080c-43-37-73-98-362-725c-114-247-293-634-397-860c-105-225-277-599-383-830s-265-577-355-770
		C420,1140,62,353,51,315C16,186,71,72,191,26c40-15,126-16,954-14l910,3l66,32c80,40,155,116,198,202l32,61l-3,2380l-3,2379l-21,22
		l-21,21L2267,5080z M1950,1925V410h-669c-637,0-731,3-731,20c0,8,348,764,975,2120c166,360,327,708,356,772c30,65,57,118,62,118
		C1947,3440,1950,2758,1950,1925z"/>
	<path class="st0" d="M2804,5089c-19-21-19-77-22-2400l-2-2379l27-58c31-66,138-179,195-205c20-10,61-22,91-27c34-7,383-9,943-8
		l889,3l41,22c87,46,132,131,121,226c-6,49-179,436-807,1802c-517,1125-1264,2743-1320,2857c-47,97-110,188-129,188
		C2827,5110,2815,5101,2804,5089z"/>
</g>
</svg>
