<?xml version="1.0" encoding="utf-8"?>
<!-- Generator: Adobe Illustrator 19.2.0, SVG Export Plug-In . SVG Version: 6.00 Build 0)  -->
<svg version="1.1" id="Layer_1" xmlns="http://www.w3.org/2000/svg" xmlns:xlink="http://www.w3.org/1999/xlink" x="0px" y="0px"
	 viewBox="0 0 512 512" style="enable-background:new 0 0 512 512;" xml:space="preserve">
<style type="text/css">
	.st0{fill:#FFFFFF;}
</style>
<g transform="translate(0.000000,512.000000) scale(0.100000,-0.100000)">
	<path class="st0" d="M525,4803c-195-26-364-153-460-348l-50-100V2590c0-1421,3-1779,13-1835c20-103,63-177,162-275
		c101-102,176-145,276-160c94-13,4094-13,4188,0c155,23,334,170,409,337c19,43,29,88,37,168c12,126,13,2566,1,2815
		c-7,153-8,156-45,229c-81,162-194,265-352,322c-59,22-64,22-1287,29c-941,6-1231,11-1242,20c-9,7-15,29-15,51c0,48-50,186-90,249
		c-42,66-146,162-207,194c-29,14-82,37-119,51l-66,25l-562-1C808,4808,542,4805,525,4803z M4630,3790c19-15,47-45,62-66l28-39
		l-3-1420l-2-1420l-22-42c-13-23-39-54-59-70c-34-26-46-28-163-34c-164-9-3658-9-3822,0c-118,6-128,8-164,35c-20,16-47,50-59,75
		l-21,46v1395c0,767,4,1412,8,1433c8,39,54,98,91,120c32,18,578,22,2441,18l1650-3L4630,3790z"/>
	<path class="st0" d="M2155,3431c-27-4-65-15-83-24c-38-21-88-86-97-127c-4-17-14-30-28-34c-12-3-157-6-323-6h-301l-41-30
		c-22-16-52-49-66-73l-26-44v-834v-835l29-46c18-28,47-55,76-71l48-27h1222h1223l48,33c32,21,59,50,76,82l28,50v811v810l-27,55
		c-17,33-45,67-71,86l-44,33h-322h-322l-12,44c-13,51-48,96-100,128c-37,23-38,23-437,25C2385,3438,2183,3435,2155,3431z M2785,3030
		c266-83,463-281,547-550c20-64,23-96,23-220s-3-156-23-220c-50-158-145-303-265-400c-73-60-215-133-307-157c-91-25-310-24-400,1
		c-292,81-510,307-581,602c-27,113-22,278,11,394c58,201,197,376,380,478c71,40,177,80,243,92C2502,3066,2705,3055,2785,3030z"/>
	<path class="st0" d="M2434,2805c-34-7-83-24-110-38c-250-127-371-381-304-641c74-292,362-475,652-415c192,39,365,197,423,386
		C3220,2504,2854,2896,2434,2805z M2710,2589c66-31,142-105,178-174c24-44,27-61,27-150c0-88-3-107-27-157c-34-73-103-142-176-176
		c-49-23-70-27-152-27c-84,0-102,3-152,28c-123,61-200,175-206,307c-5,96,8,143,59,219c48,72,87,104,166,137
		C2506,2630,2628,2626,2710,2589z"/>
</g>
</svg>
