<svg id="Layer_1" xmlns="http://www.w3.org/2000/svg" viewBox="0 0 512 512"><style>.st0{fill:#fff}</style><path class="st0" d="M525 4803c-195-26-364-153-460-348l-50-100V2590c0-1421 3-1779 13-1835 20-103 63-177 162-275 101-102 176-145 276-160 94-13 4094-13 4188 0 155 23 334 170 409 337 19 43 29 88 37 168 12 126 13 2566 1 2815-7 153-8 156-45 229-81 162-194 265-352 322-59 22-64 22-1287 29-941 6-1231 11-1242 20-9 7-15 29-15 51 0 48-50 186-90 249-42 66-146 162-207 194-29 14-82 37-119 51l-66 25-562-1c-308-1-574-4-591-6zm4105-1013c19-15 47-45 62-66l28-39-3-1420-2-1420-22-42c-13-23-39-54-59-70-34-26-46-28-163-34-164-9-3658-9-3822 0-118 6-128 8-164 35-20 16-47 50-59 75l-21 46v1395c0 767 4 1412 8 1433 8 39 54 98 91 120 32 18 578 22 2441 18l1650-3 35-28z" transform="matrix(.1 0 0 -.1 0 512)"/><path class="st0" d="M2155 3431c-27-4-65-15-83-24-38-21-88-86-97-127-4-17-14-30-28-34-12-3-157-6-323-6h-301l-41-30c-22-16-52-49-66-73l-26-44V1424l29-46c18-28 47-55 76-71l48-27h2445l48 33c32 21 59 50 76 82l28 50v1621l-27 55c-17 33-45 67-71 86l-44 33h-644l-12 44c-13 51-48 96-100 128-37 23-38 23-437 25-220 1-422-2-450-6zm630-401c266-83 463-281 547-550 20-64 23-96 23-220s-3-156-23-220c-50-158-145-303-265-400-73-60-215-133-307-157-91-25-310-24-400 1-292 81-510 307-581 602-27 113-22 278 11 394 58 201 197 376 380 478 71 40 177 80 243 92 89 16 292 5 372-20z" transform="matrix(.1 0 0 -.1 0 512)"/><path class="st0" d="M2434 2805c-34-7-83-24-110-38-250-127-371-381-304-641 74-292 362-475 652-415 192 39 365 197 423 386 125 407-241 799-661 708zm276-216c66-31 142-105 178-174 24-44 27-61 27-150 0-88-3-107-27-157-34-73-103-142-176-176-49-23-70-27-152-27-84 0-102 3-152 28-123 61-200 175-206 307-5 96 8 143 59 219 48 72 87 104 166 137 79 34 201 30 283-7z" transform="matrix(.1 0 0 -.1 0 512)"/></svg>