<?xml version="1.0" encoding="utf-8"?>
<!-- Generator: Adobe Illustrator 19.2.0, SVG Export Plug-In . SVG Version: 6.00 Build 0)  -->
<svg version="1.1" id="Layer_1" xmlns="http://www.w3.org/2000/svg" xmlns:xlink="http://www.w3.org/1999/xlink" x="0px" y="0px"
	 viewBox="0 0 48 48" style="enable-background:new 0 0 48 48;" xml:space="preserve">
<style type="text/css">
	.st0{fill:#E76100;}
	.st1{fill:#FFFFFF;}
</style>
<path class="st0" d="M33.3,44.4H15.4c-6.6,0-12-5.4-12-12V15.9c0-6.6,5.4-12,12-12h17.9c6.6,0,12,5.4,12,12v16.5
	C45.3,39,39.9,44.4,33.3,44.4z"/>
<rect x="15.6" y="12.1" class="st1" width="6.3" height="32.3"/>
<circle class="st1" cx="27.8" cy="24.4" r="11.8"/>
<path class="st0" d="M24.2,22.5c0.2-1.4,0.4-2.7,1.3-3.1c1.9-0.8,7,2.5,6.4,6.3c-0.4,2.7-3.6,5.1-5.6,4.4
	C24,29.4,23.9,24.7,24.2,22.5z"/>
</svg>
