<svg id="Layer_1" xmlns="http://www.w3.org/2000/svg" viewBox="0 0 512 512"><style>.st0{fill:#fff}.st1{fill:none}.st2{font-family:&amp;apos;Arial-Black&amp;apos;}.st3{font-size:100px}</style><path class="st0" d="M3515 5094c-16-8-91-75-165-149-109-109-141-135-163-135-65 0-132-63-142-135-12-74 14-109 249-344l215-215 63-4c50-2 70 1 96 17 49 31 72 76 72 142 0 63-9 78-94 166l-50 53 198-1c286-1 380-29 512-152 74-68 118-134 152-225 24-63 26-81 29-292l4-225-53 51c-89 86-104 94-167 94-66 0-111-23-142-72-16-26-19-46-17-96l4-63 215-215c235-235 270-261 344-249 72 10 135 77 135 142 0 22 28 55 139 168 142 143 161 170 161 231 0 87-69 154-159 154-55 0-82-10-117-42l-22-20-5 209c-3 175-8 220-26 281-71 242-239 441-468 556-134 67-193 78-426 83l-209 5 20 22c32 35 42 62 42 117 0 35-7 63-21 86-40 64-138 92-204 57zM1803 3676c-196-48-338-211-364-417-6-55-9-330-7-760 4-668 4-675 26-733 57-153 177-268 321-310 48-14 148-16 782-16 694 0 730 1 790 20 119 36 219 119 278 231 60 110 61 126 61 870 0 443-4 696-11 735-32 178-173 330-348 376-59 15-136 17-771 17-530-1-718-4-757-13zM416 2070c-55-17-106-82-106-137 0-22-28-55-139-168-142-143-161-170-161-231 0-87 69-154 159-154 55 0 82 10 117 42l22 20 5-209c3-175 8-220 26-281 71-242 239-441 468-556 134-67 193-78 426-83l209-5-20-22c-32-35-42-62-42-117 0-90 67-159 154-159 61 0 88 19 231 161 113 111 146 139 168 139 65 0 132 63 142 135 12 74-14 109-249 344l-215 215-63 4c-50 2-70-1-96-17-49-31-72-76-72-142 0-63 9-78 94-166l50-53-198 1c-298 1-387 29-526 169-140 139-168 228-169 526l-1 198 53-50c88-85 103-94 166-94 66 0 111 23 142 72 16 26 19 46 17 96l-4 63-215 215c-250 250-282 271-373 244z" transform="matrix(.1 0 0 -.1 0 512)"/><path class="st1" d="M153.1 214h208v108h-208z"/><text transform="translate(160.07 291.599)" class="st2 st3">180</text></svg>