<?xml version="1.0" encoding="utf-8"?>
<!-- Generator: Adobe Illustrator 19.2.0, SVG Export Plug-In . SVG Version: 6.00 Build 0)  -->
<svg version="1.1" id="Layer_1" xmlns="http://www.w3.org/2000/svg" xmlns:xlink="http://www.w3.org/1999/xlink" x="0px" y="0px"
	 viewBox="0 0 512 512" style="enable-background:new 0 0 512 512;" xml:space="preserve">
<style type="text/css">
	.st0{fill:#FFFFFF;}
	.st1{fill:none;}
	.st2{font-family:'Arial-Black';}
	.st3{font-size:150px;}
</style>
<g transform="translate(0.000000,512.000000) scale(0.100000,-0.100000)">
	<path class="st0" d="M785.2,4950.2c-41.7-30.4-36.7-18-189.9-481.8C230,3362.4,141,3072.3,146.1,3009.5c1.1-14,18.1-37.7,39.6-56
		l38.8-33l74.3,12c159.4,26.9,1422.8,308.3,1743.4,389.3c100.3,25.1,120.8,32.8,138.9,56.3c42.6,56.6,19.5,93.9-249.6,408.3
		c-74.2,86.3-135.4,161.6-135.8,166.6c-1,12,167.1,80.7,276.8,112.6c525.3,154.7,1063.8,69.7,1510.9-236.4
		c114.7-79,289.2-239.5,373.9-345.1c143.8-178,270.3-416.6,327.4-614.7c35-123.6,63.4-300.9,66.8-430c11.4-403.4,11-397.4,43.2-449
		c60.1-98.5,147.9-142.6,262.6-134.3c90.7,7.3,136.3,26,186.3,78.2c97.2,101.1,122.4,273.7,92.8,641.5
		c-14.5,180.4-32,272.3-82.4,449.8c-289,997-1205,1694.7-2241.3,1706.5c-149.6,2-442.1-29.6-578.8-62.7
		c-191-45.5-419.7-132.1-575.4-216.9l-56.7-30.7l-42.3,39.7c-22.9,22.2-108.8,117.6-191.8,213.3
		c-178.2,206.4-237.3,267.8-280.2,289.4C845.5,4986.1,832.7,4984.1,785.2,4950.2z"/>
	<path class="st0" d="M528.7,1896.7c-69.7-31.7-113.2-76.3-146.5-149.2c-51.1-112.5-39.4-183.8,62-395.3
		c115.5-238.5,198.6-335.1,309.7-357.3c73.5-15.1,144.8-4.4,211.1,32.1c55.7,30.6,90.9,67.5,120.9,130.1
		c20.7,41.8,22.5,57,15.7,141.7c-7.5,92.7-8.8,96.6-73.9,219.8c-36.7,69.3-82,158.9-100.4,199.6c-57.8,131.8-157.7,202-285.1,201.7
		C597.1,1919.2,566.4,1913.8,528.7,1896.7z"/>
	<path class="st0" d="M4195.7,1496c-53.1-25.4-86.5-59.1-242.7-250.3c-133.5-161.2-158.6-198.4-172.7-247.7
		c-30.4-107.8-3.1-210.9,76.3-286.8c70.6-66.5,130.5-87.8,223.1-79.3c95.6,8.7,138.8,33.3,235,134.3
		c100.9,105.4,225.2,268,251.5,327.3c74.7,168.5,3.3,345.4-162.9,403.2C4349.7,1515.4,4235.3,1515.2,4195.7,1496z"/>
	<path class="st0" d="M1365.5,837.5c-184.6-112.2-185.4-376.1-1.2-495.7c141.8-91.9,385.1-197.7,479.3-208.2
		c116.5-13.7,222.3,43,283.8,151.3c34.5,58,34.4,59,26.7,154.6c-12,149.5-57.5,203-236.6,283.9c-56.2,24.6-131.3,60.6-168.9,79.7
		c-129.6,64.8-186.1,81.3-257.9,75.5C1436.8,874.3,1414.3,866.5,1365.5,837.5z"/>
	<path class="st0" d="M3102.3,673.5c-1.8-3.2-83.4-23.8-180.9-45.7c-190.1-43.4-234.8-62.1-290.4-118.7
		c-56.5-58.7-80-127.8-72.8-216.6c8.9-122.7,75.2-211.6,190.1-254.6c48.6-18.2,59.7-18.3,190.8-2.7
		c216.7,25.5,401.8,80.5,474.2,140.6c171.3,140.2,124.7,419.4-84.1,495.8c-41.4,15.7-68.7,18.5-137.5,13
		C3144.8,680.9,3104.1,675.6,3102.3,673.5z"/>
</g>
<rect x="121" y="240.5" class="st1" width="236" height="111"/>
<rect x="160" y="223" class="st1" width="238.1" height="178.5"/>
<text transform="matrix(1 0 0 1 167 344.9427)" class="st0 st2 st3">90</text>
</svg>
