<?xml version="1.0" encoding="utf-8"?>
<!-- Generator: Adobe Illustrator 19.2.0, SVG Export Plug-In . SVG Version: 6.00 Build 0)  -->
<svg version="1.1" id="Layer_1" xmlns="http://www.w3.org/2000/svg" xmlns:xlink="http://www.w3.org/1999/xlink" x="0px" y="0px"
	 viewBox="0 0 512 512" style="enable-background:new 0 0 512 512;" xml:space="preserve">
<style type="text/css">
	.st0{fill:#FFFFFF;}
	.st1{fill:none;}
	.st2{font-family:'Arial-Black';}
	.st3{font-size:100px;}
</style>
<g transform="translate(0.000000,512.000000) scale(0.100000,-0.100000)">
	<path class="st0" d="M3515,5094c-16-8-91-75-165-149c-109-109-141-135-163-135c-65,0-132-63-142-135c-12-74,14-109,249-344l215-215
		l63-4c50-2,70,1,96,17c49,31,72,76,72,142c0,63-9,78-94,166l-50,53l198-1c286-1,380-29,512-152c74-68,118-134,152-225
		c24-63,26-81,29-292l4-225l-53,51c-89,86-104,94-167,94c-66,0-111-23-142-72c-16-26-19-46-17-96l4-63l215-215
		c235-235,270-261,344-249c72,10,135,77,135,142c0,22,28,55,139,168c142,143,161,170,161,231c0,87-69,154-159,154
		c-55,0-82-10-117-42l-22-20l-5,209c-3,175-8,220-26,281c-71,242-239,441-468,556c-134,67-193,78-426,83l-209,5l20,22
		c32,35,42,62,42,117c0,35-7,63-21,86C3679,5101,3581,5129,3515,5094z"/>
	<path class="st0" d="M1803,3676c-196-48-338-211-364-417c-6-55-9-330-7-760c4-668,4-675,26-733c57-153,177-268,321-310
		c48-14,148-16,782-16c694,0,730,1,790,20c119,36,219,119,278,231c60,110,61,126,61,870c0,443-4,696-11,735c-32,178-173,330-348,376
		c-59,15-136,17-771,17C2030,3688,1842,3685,1803,3676z"/>
	<path class="st0" d="M416,2070c-55-17-106-82-106-137c0-22-28-55-139-168C29,1622,10,1595,10,1534c0-87,69-154,159-154
		c55,0,82,10,117,42l22,20l5-209c3-175,8-220,26-281c71-242,239-441,468-556c134-67,193-78,426-83l209-5l-20-22c-32-35-42-62-42-117
		c0-90,67-159,154-159c61,0,88,19,231,161c113,111,146,139,168,139c65,0,132,63,142,135c12,74-14,109-249,344l-215,215l-63,4
		c-50,2-70-1-96-17c-49-31-72-76-72-142c0-63,9-78,94-166l50-53l-198,1c-298,1-387,29-526,169c-140,139-168,228-169,526l-1,198
		l53-50c88-85,103-94,166-94c66,0,111,23,142,72c16,26,19,46,17,96l-4,63l-215,215C539,2076,507,2097,416,2070z"/>
</g>
<rect x="153.1" y="214" class="st1" width="208" height="108"/>
<text transform="matrix(1 0 0 1 160.0692 291.5986)" class="st2 st3">180</text>
</svg>
