<svg id="Layer_1" xmlns="http://www.w3.org/2000/svg" viewBox="0 0 512 512"><style>.st0{fill:#fff}.st1{fill:none}.st2{font-family:&amp;apos;Arial-Black&amp;apos;}.st3{font-size:150px}</style><path class="st0" d="M785.2 4950.2c-41.7-30.4-36.7-18-189.9-481.8C230 3362.4 141 3072.3 146.1 3009.5c1.1-14 18.1-37.7 39.6-56l38.8-33 74.3 12c159.4 26.9 1422.8 308.3 1743.4 389.3 100.3 25.1 120.8 32.8 138.9 56.3 42.6 56.6 19.5 93.9-249.6 408.3-74.2 86.3-135.4 161.6-135.8 166.6-1 12 167.1 80.7 276.8 112.6 525.3 154.7 1063.8 69.7 1510.9-236.4 114.7-79 289.2-239.5 373.9-345.1 143.8-178 270.3-416.6 327.4-614.7 35-123.6 63.4-300.9 66.8-430 11.4-403.4 11-397.4 43.2-449 60.1-98.5 147.9-142.6 262.6-134.3 90.7 7.3 136.3 26 186.3 78.2 97.2 101.1 122.4 273.7 92.8 641.5-14.5 180.4-32 272.3-82.4 449.8-289 997-1205 1694.7-2241.3 1706.5-149.6 2-442.1-29.6-578.8-62.7-191-45.5-419.7-132.1-575.4-216.9l-56.7-30.7-42.3 39.7c-22.9 22.2-108.8 117.6-191.8 213.3-178.2 206.4-237.3 267.8-280.2 289.4-42 21.9-54.8 19.9-102.3-14zM528.7 1896.7c-69.7-31.7-113.2-76.3-146.5-149.2-51.1-112.5-39.4-183.8 62-395.3 115.5-238.5 198.6-335.1 309.7-357.3 73.5-15.1 144.8-4.4 211.1 32.1 55.7 30.6 90.9 67.5 120.9 130.1 20.7 41.8 22.5 57 15.7 141.7-7.5 92.7-8.8 96.6-73.9 219.8-36.7 69.3-82 158.9-100.4 199.6-57.8 131.8-157.7 202-285.1 201.7-45.1-.7-75.8-6.1-113.5-23.2zm3667-400.7c-53.1-25.4-86.5-59.1-242.7-250.3-133.5-161.2-158.6-198.4-172.7-247.7-30.4-107.8-3.1-210.9 76.3-286.8 70.6-66.5 130.5-87.8 223.1-79.3 95.6 8.7 138.8 33.3 235 134.3 100.9 105.4 225.2 268 251.5 327.3 74.7 168.5 3.3 345.4-162.9 403.2-53.6 18.7-168 18.5-207.6-.7zM1365.5 837.5c-184.6-112.2-185.4-376.1-1.2-495.7 141.8-91.9 385.1-197.7 479.3-208.2 116.5-13.7 222.3 43 283.8 151.3 34.5 58 34.4 59 26.7 154.6-12 149.5-57.5 203-236.6 283.9-56.2 24.6-131.3 60.6-168.9 79.7-129.6 64.8-186.1 81.3-257.9 75.5-53.9-4.3-76.4-12.1-125.2-41.1zm1736.8-164c-1.8-3.2-83.4-23.8-180.9-45.7-190.1-43.4-234.8-62.1-290.4-118.7-56.5-58.7-80-127.8-72.8-216.6 8.9-122.7 75.2-211.6 190.1-254.6 48.6-18.2 59.7-18.3 190.8-2.7 216.7 25.5 401.8 80.5 474.2 140.6 171.3 140.2 124.7 419.4-84.1 495.8-41.4 15.7-68.7 18.5-137.5 13-46.9-3.7-87.6-9-89.4-11.1z" transform="matrix(.1 0 0 -.1 0 512)"/><path class="st1" d="M121 240.5h236v111H121z"/><path class="st1" d="M160 223h238.1v178.5H160z"/><text transform="translate(167 344.943)" class="st0 st2 st3">90</text></svg>