<?xml version="1.0" encoding="utf-8"?>
<!-- Generator: Adobe Illustrator 19.2.0, SVG Export Plug-In . SVG Version: 6.00 Build 0)  -->
<svg version="1.1" id="Layer_1" xmlns="http://www.w3.org/2000/svg" xmlns:xlink="http://www.w3.org/1999/xlink" x="0px" y="0px"
	 viewBox="0 0 512 512" style="enable-background:new 0 0 512 512;" xml:space="preserve">
<style type="text/css">
	.st0{fill:#FFFFFF;}
	.st1{fill:none;}
	.st2{font-family:'Arial-Black';}
	.st3{font-size:150px;}
</style>
<g transform="translate(0.000000,512.000000) scale(0.100000,-0.100000)">
	<path class="st0" d="M4645.6,4633.7c-46-13.8-114.9-64-326.3-236.2c-98.3-79.7-199.6-158.7-226-176.6l-48.6-31.7l-50.5,40.1
		c-138.5,110.6-348.7,235.8-528.8,313.9c-128.9,56.4-411.4,138.5-559.1,162.6C1883.8,4874.8,860.2,4347.4,401.9,3416
		c-80.6-166-113.8-253.5-159.5-428.6c-93.3-357-98.5-531.4-20.4-647.9c40.1-60.1,81.8-86.5,169.8-109.5c111.5-28.1,205.7,0,282,86.5
		c40.7,45.2,39.2,39.4,120.8,434.6c25.8,126.6,84.6,296.2,140.7,411.8c90.7,185.1,256.9,398,429.5,548.2
		c101.8,89.2,301.6,216.8,428.3,274.6c493.5,223.5,1038.7,213.4,1529-30.5c102.5-50.6,256-147.5,253-159.1
		c-1.3-4.8-74.7-68.3-162.8-140.4c-319.8-262.7-349-295.4-316.9-358.5c13.8-26.3,32.6-37.5,127-79.7
		c301.5-135.6,1496.6-632.9,1648.9-687.1l71-24.8l43.9,25.7c24.4,14.3,45.2,34.7,48.8,48.2c15.9,61-21.2,362.1-188.2,1514.8
		c-70.1,483.4-67.3,470.3-103,507.5C4703,4643.5,4690.6,4647.7,4645.6,4633.7z"/>
	<path class="st0" d="M4356.6,1593c-125.4,22.4-236.1-29.3-315.9-149c-25.1-36.8-85.4-117.2-133.6-179
		c-85.6-109.9-87.5-113.6-111.1-203.5c-21.5-82.2-22.4-97.5-9.3-142.3c18.7-66.9,46.9-109.4,96.4-149.2
		c58.9-47.4,127.3-70.5,202.3-68.4c113.3,2.4,211.9,83.1,367.2,297.8c136.6,190.7,160.6,258.8,129.9,378.5
		c-20,77.6-55.1,129.1-118.2,172.5C4430.1,1573.8,4400.9,1584.5,4356.6,1593z"/>
	<path class="st0" d="M579.2,1831.6c-173.7-28-274.9-189.7-230.7-368.7c15.6-63,109.7-244.7,190.7-366.1
		c77.1-116.3,115.3-148,208-173.2c89.7-24.5,152.4-14,233.5,39.2c91.4,60.9,136.3,157.7,125.1,269.1c-5.3,51-23.5,91.9-126.9,274
		c-120.4,215.4-147.4,254.5-195.3,288.8C747.9,1820.6,635.3,1840.7,579.2,1831.6z"/>
	<path class="st0" d="M3339.7,715.5c-69.7,18.2-128.2,11.8-267.1-29.4c-40.4-12.2-120.7-34.6-180.2-49
		c-190.4-48.4-244.5-93.2-282.4-238.3c-24.3-92.9-24.5-93.8-0.7-156.9c41.7-117.3,136-191.6,253.1-198.4
		c94.5-6.1,352.5,55.7,508.2,121.5c202.2,85.7,247.4,345.7,85.2,488.3C3412.7,690.2,3392,701.9,3339.7,715.5z"/>
	<path class="st0" d="M1630.9,820.9c-66.8,17.4-94.1,19.4-137.6,11.2c-218.9-38.9-313.5-305.7-169.2-473.6
		c60.8-71.7,233.6-158.2,442.5-221c126.4-38.2,137.3-40,188.4-30.6c120.5,22.3,201.4,98.3,231.5,217.5
		c22.5,86.1,11.4,158.3-34,225.9c-44.9,65.5-85.6,91.6-265.3,167.5c-92.2,38.6-169,73.1-170.2,76.5
		C1715.5,796.7,1676.4,809,1630.9,820.9z"/>
</g>
<rect x="121" y="240.5" class="st1" width="236" height="111"/>
<rect x="160" y="223" class="st1" width="238.1" height="178.5"/>
<text transform="matrix(1 0 0 1 163 344.9427)" class="st0 st2 st3">90</text>
</svg>
