<svg id="Layer_1" xmlns="http://www.w3.org/2000/svg" viewBox="0 0 512 512"><style>.st0{fill:#fff}.st1{fill:none}.st2{font-family:&amp;apos;Arial-Black&amp;apos;}.st3{font-size:150px}</style><path class="st0" d="M4645.6 4633.7c-46-13.8-114.9-64-326.3-236.2-98.3-79.7-199.6-158.7-226-176.6l-48.6-31.7-50.5 40.1c-138.5 110.6-348.7 235.8-528.8 313.9-128.9 56.4-411.4 138.5-559.1 162.6-1022.5 169-2046.1-358.4-2504.4-1289.8-80.6-166-113.8-253.5-159.5-428.6-93.3-357-98.5-531.4-20.4-647.9 40.1-60.1 81.8-86.5 169.8-109.5 111.5-28.1 205.7 0 282 86.5 40.7 45.2 39.2 39.4 120.8 434.6 25.8 126.6 84.6 296.2 140.7 411.8 90.7 185.1 256.9 398 429.5 548.2 101.8 89.2 301.6 216.8 428.3 274.6 493.5 223.5 1038.7 213.4 1529-30.5 102.5-50.6 256-147.5 253-159.1-1.3-4.8-74.7-68.3-162.8-140.4-319.8-262.7-349-295.4-316.9-358.5 13.8-26.3 32.6-37.5 127-79.7 301.5-135.6 1496.6-632.9 1648.9-687.1l71-24.8 43.9 25.7c24.4 14.3 45.2 34.7 48.8 48.2 15.9 61-21.2 362.1-188.2 1514.8-70.1 483.4-67.3 470.3-103 507.5-40.8 41.7-53.2 45.9-98.2 31.9zm-289-3040.7c-125.4 22.4-236.1-29.3-315.9-149-25.1-36.8-85.4-117.2-133.6-179-85.6-109.9-87.5-113.6-111.1-203.5-21.5-82.2-22.4-97.5-9.3-142.3 18.7-66.9 46.9-109.4 96.4-149.2 58.9-47.4 127.3-70.5 202.3-68.4 113.3 2.4 211.9 83.1 367.2 297.8 136.6 190.7 160.6 258.8 129.9 378.5-20 77.6-55.1 129.1-118.2 172.5-34.2 23.4-63.4 34.1-107.7 42.6zM579.2 1831.6c-173.7-28-274.9-189.7-230.7-368.7 15.6-63 109.7-244.7 190.7-366.1 77.1-116.3 115.3-148 208-173.2 89.7-24.5 152.4-14 233.5 39.2 91.4 60.9 136.3 157.7 125.1 269.1-5.3 51-23.5 91.9-126.9 274-120.4 215.4-147.4 254.5-195.3 288.8-35.7 25.9-148.3 46-204.4 36.9zM3339.7 715.5c-69.7 18.2-128.2 11.8-267.1-29.4-40.4-12.2-120.7-34.6-180.2-49-190.4-48.4-244.5-93.2-282.4-238.3-24.3-92.9-24.5-93.8-.7-156.9 41.7-117.3 136-191.6 253.1-198.4 94.5-6.1 352.5 55.7 508.2 121.5 202.2 85.7 247.4 345.7 85.2 488.3-43.1 36.9-63.8 48.6-116.1 62.2zM1630.9 820.9c-66.8 17.4-94.1 19.4-137.6 11.2-218.9-38.9-313.5-305.7-169.2-473.6 60.8-71.7 233.6-158.2 442.5-221 126.4-38.2 137.3-40 188.4-30.6 120.5 22.3 201.4 98.3 231.5 217.5 22.5 86.1 11.4 158.3-34 225.9-44.9 65.5-85.6 91.6-265.3 167.5-92.2 38.6-169 73.1-170.2 76.5-1.5 2.4-40.6 14.7-86.1 26.6z" transform="matrix(.1 0 0 -.1 0 512)"/><path class="st1" d="M121 240.5h236v111H121z"/><path class="st1" d="M160 223h238.1v178.5H160z"/><text transform="translate(163 344.943)" class="st0 st2 st3">90</text></svg>